<svg width="51" height="77" fill="none" xmlns="http://www.w3.org/2000/svg"><path d="M25.025 38.5c0-7.09 5.605-12.832 12.513-12.832 6.913 0 12.512 5.737 12.512 12.832 0 7.09-5.599 12.831-12.512 12.831-6.903 0-12.513-5.736-12.513-12.831Z" fill="#1ABCFE"/><path d="M0 64.168c0-7.089 5.604-12.837 12.512-12.837h12.513v12.837C25.025 71.252 19.421 77 12.513 77 5.603 77 0 71.252 0 64.168Z" fill="#0ACF83"/><path d="M25.025 0v25.669h12.513c6.913 0 12.512-5.748 12.512-12.838C50.05 5.748 44.451 0 37.538 0H25.025Z" fill="#FF7262"/><path d="M0 12.832c0 7.089 5.605 12.837 12.513 12.837h12.512V0H12.513C5.605 0 0 5.747 0 12.832Z" fill="#F24E1E"/><path d="M0 38.5C0 45.59 5.604 51.33 12.512 51.33h12.513V25.668H12.513C5.605 25.669 0 31.406 0 38.5Z" fill="#A259FF"/></svg>